# xmcd CD database file
#
# Track frame offsets:
#	150
#	12530
#	26168
#	45961
#	63294
#	81813
#	105876
#	124193
#	142033
#	164351
#	184408
#	207358
#	229896
#	243298
#	271458
#
# Disc length: 3697 seconds
#
# Revision: 0
# Processed by: cddbd v1.5.1PL0 Copyright (c) Steve Scherf et al.
# Submitted via: CDex 1.51
#
DISCID=ce0e6f0f
DTITLE=yamamo - Eternity
DYEAR=1900
DGENRE=Game
TTITLE0=Prelude
TTITLE1=はるかなる故郷(FF5)
TTITLE2=The Man with the Machine Gun(FF8)
TTITLE3=FF2 メインテーマ
TTITLE4=久の風
TTITLE5=ティナのテーマ(FF6)
TTITLE6=Ambient de Chocobo(FF10)
TTITLE7=いつか終わる夢(FF10)
TTITLE8=FF4 メインテーマ
TTITLE9=海底神殿(FF1)
TTITLE10=エアリスのテーマ(FF7)
TTITLE11=あの丘を越えて(FF9)
TTITLE12=A Chapel(FFT)
TTITLE13=Ronfaure(FF11)
TTITLE14=Data Track
EXTD=
EXTT0=
EXTT1=
EXTT2=
EXTT3=
EXTT4=
EXTT5=
EXTT6=
EXTT7=
EXTT8=
EXTT9=
EXTT10=
EXTT11=
EXTT12=
EXTT13=
EXTT14=
PLAYORDER=
